<svg xmlns="http://www.w3.org/2000/svg" xmlns:svgjs="http://svgjs.com/svgjs" xmlns:xlink="http://www.w3.org/1999/xlink" style="enable-background:new 0 0 512 512" width="512" height="512" x="0" y="0" version="1.1" viewBox="0 0 128 128" xml:space="preserve"><g><rect xmlns="http://www.w3.org/2000/svg" width="112" height="98" x="10" y="17" fill="#e6e7e8" data-original="#e6e7e8" rx="5"/><rect xmlns="http://www.w3.org/2000/svg" width="110" height="96" x="7" y="14" fill="#f2f2f2" data-original="#0089ef" rx="4"/><path xmlns="http://www.w3.org/2000/svg" fill="#222" d="m57.678 77.2-26.578 11.576a4.717 4.717 0 0 1 -6.6-4.324v-.065a4.714 4.714 0 0 1 2.993-4.387l23.034-9.044-23.013-8.9a4.716 4.716 0 0 1 -3.014-4.4 4.717 4.717 0 0 1 6.585-4.331l26.572 11.459a6.769 6.769 0 0 1 4.087 6.216 6.768 6.768 0 0 1 -4.066 6.2z" data-original="#fa759e"/><path xmlns="http://www.w3.org/2000/svg" fill="#222" d="m92.446 79.911h-22.084a4.631 4.631 0 1 0 0 9.262h22.084a4.631 4.631 0 0 0 0-9.262z" data-original="#fa759e"/><path xmlns="http://www.w3.org/2000/svg" fill="#fff" d="m113 107h-102a4 4 0 0 1 -4-4v3a4 4 0 0 0 4 4h102a4 4 0 0 0 4-4v-3a4 4 0 0 1 -4 4z" data-original="#ffffff"/><path xmlns="http://www.w3.org/2000/svg" fill="#ced4da" d="m113 14h-102a4 4 0 0 0 -4 4v10.5h110v-10.5a4 4 0 0 0 -4-4z" data-original="#6dc9f7"/><path xmlns="http://www.w3.org/2000/svg" fill="#fff" d="m95.667 19.083a2.334 2.334 0 1 0 2.333 2.334 2.334 2.334 0 0 0 -2.333-2.334z" data-original="#ffffff"/><path xmlns="http://www.w3.org/2000/svg" fill="#4b5563" d="m102.667 19.083a2.334 2.334 0 1 0 2.333 2.334 2.333 2.333 0 0 0 -2.333-2.334z" data-original="#d4fbff"/><path xmlns="http://www.w3.org/2000/svg" fill="#222" d="m109.667 19.083a2.334 2.334 0 1 0 2.333 2.334 2.333 2.333 0 0 0 -2.333-2.334z" data-original="#fa759e"/><g xmlns="http://www.w3.org/2000/svg" fill="#3a2c60"><path fill="#222" d="m58.054 63.866-26.573-11.466a5.716 5.716 0 1 0 -4.327 10.58l20.619 7.98-20.645 8.106a5.746 5.746 0 1 0 4.372 10.627l26.577-11.573a7.768 7.768 0 0 0 -.023-14.254zm-.776 12.42-26.578 11.573a3.717 3.717 0 0 1 -5.2-3.472 3.7 3.7 0 0 1 2.358-3.46l23.035-9.043a1 1 0 0 0 -.005-1.864l-23.013-8.9a3.742 3.742 0 0 1 -2.375-3.47 3.733 3.733 0 0 1 3.7-3.723 3.738 3.738 0 0 1 1.483.311l26.578 11.462a5.767 5.767 0 0 1 .017 10.583z" data-original="#3a2c60"/><path fill="#222" d="m92.446 78.911h-22.085a5.631 5.631 0 0 0 0 11.262h22.085a5.631 5.631 0 0 0 0-11.262zm0 9.262h-22.085a3.631 3.631 0 0 1 0-7.262h22.085a3.631 3.631 0 0 1 0 7.262z" data-original="#3a2c60"/><path fill="#222" d="m71.5 29.5h8.75a1 1 0 0 0 0-2h-8.75a1 1 0 0 0 0 2z" data-original="#3a2c60"/><path fill="#222" d="m113 13h-102a5.006 5.006 0 0 0 -5 5v88a5.006 5.006 0 0 0 5 5h102a5.006 5.006 0 0 0 5-5v-88a5.006 5.006 0 0 0 -5-5zm0 96h-102a3 3 0 0 1 -3-3v-76.5h58.667a1 1 0 0 0 0-2h-58.667v-9.5a3 3 0 0 1 3-3h102a3 3 0 0 1 3 3v9.5h-30.732a1 1 0 0 0 0 2h30.732v76.5a3 3 0 0 1 -3 3z" data-original="#3a2c60"/></g></g></svg>